HIERARCHY
ROOT Hips
{
	OFFSET 0.000000 0.000000 0.000000
	CHANNELS 6 Xposition Yposition Zposition Zrotation Yrotation Xrotation 
	JOINT LHipJoint
	{
		OFFSET 0.000000 0.000000 0.000000
		CHANNELS 3 Zrotation Yrotation Xrotation
		JOINT LeftUpLeg
		{
			OFFSET 1.363060 -1.794630 0.839290
			CHANNELS 3 Zrotation Yrotation Xrotation
			JOINT LeftLeg
			{
				OFFSET 2.448110 -6.726130 0.000000
				CHANNELS 3 Zrotation Yrotation Xrotation
				JOINT LeftFoot
				{
					OFFSET 2.562200 -7.039590 0.000000
					CHANNELS 3 Zrotation Yrotation Xrotation
					JOINT LeftToeBase
					{
						OFFSET 0.157640 -0.433110 2.322550
						CHANNELS 3 Zrotation Yrotation Xrotation
						End Site
						{
							OFFSET 0.000000 0.000000 0.000000
						}
					}
				}
			}
		}
	}
	JOINT RHipJoint
	{
		OFFSET 0.000000 0.000000 0.000000
		CHANNELS 3 Zrotation Yrotation Xrotation
		JOINT RightUpLeg
		{
			OFFSET -1.305520 -1.794630 0.839290
			CHANNELS 3 Zrotation Yrotation Xrotation
			JOINT RightLeg
			{
				OFFSET -2.542530 -6.985550 0.000000
				CHANNELS 3 Zrotation Yrotation Xrotation
				JOINT RightFoot
				{
					OFFSET -2.568260 -7.056230 0.000000
					CHANNELS 3 Zrotation Yrotation Xrotation
					JOINT RightToeBase
					{
						OFFSET -0.164730 -0.452590 2.363150
						CHANNELS 3 Zrotation Yrotation Xrotation
						End Site
						{
							OFFSET 0.000000 0.000000 0.000000
						}
					}
				}
			}
		}
	}
	JOINT LowerBack
	{
		OFFSET 0.000000 0.000000 0.000000
		CHANNELS 3 Zrotation Yrotation Xrotation
		JOINT Spine
		{
			OFFSET 0.028270 2.035590 -0.193380
			CHANNELS 3 Zrotation Yrotation Xrotation
			JOINT Spine1
			{
				OFFSET 0.056720 2.048850 -0.042750
				CHANNELS 3 Zrotation Yrotation Xrotation
				JOINT Neck
				{
					OFFSET 0.000000 0.000000 0.000000
					CHANNELS 3 Zrotation Yrotation Xrotation
					JOINT Neck1
					{
						OFFSET -0.054170 1.746240 0.172020
						CHANNELS 3 Zrotation Yrotation Xrotation
						JOINT Head
						{
							OFFSET 0.104070 1.761360 -0.123970
							CHANNELS 3 Zrotation Yrotation Xrotation
							End Site
							{
								OFFSET 0.000000 0.000000 0.000000
							}
						}
					}
				}
				JOINT LeftShoulder
				{
					OFFSET 0.000000 0.000000 0.000000
					CHANNELS 3 Zrotation Yrotation Xrotation
					JOINT LeftArm
					{
						OFFSET 3.362410 1.200890 -0.311210
						CHANNELS 3 Zrotation Yrotation Xrotation
						JOINT LeftForeArm
						{
							OFFSET 4.983000 -0.000000 -0.000000
							CHANNELS 3 Zrotation Yrotation Xrotation
							JOINT LeftHand
							{
								OFFSET 3.483560 -0.000000 -0.000000
								CHANNELS 3 Zrotation Yrotation Xrotation
								JOINT LeftFingerBase
								{
									OFFSET 0.000000 0.000000 0.000000
									CHANNELS 3 Zrotation Yrotation Xrotation
									JOINT LeftHandIndex1
									{
										OFFSET 0.715260 -0.000000 -0.000000
										CHANNELS 3 Zrotation Yrotation Xrotation
										End Site
										{
											OFFSET 0.000000 0.000000 0.000000
										}
									}
								}
								JOINT LThumb
								{
									OFFSET 0.000000 0.000000 0.000000
									CHANNELS 3 Zrotation Yrotation Xrotation
									End Site
									{
										OFFSET 0.000000 0.000000 0.000000
									}
								}
							}
						}
					}
				}
				JOINT RightShoulder
				{
					OFFSET 0.000000 0.000000 0.000000
					CHANNELS 3 Zrotation Yrotation Xrotation
					JOINT RightArm
					{
						OFFSET -3.136600 1.374050 -0.404650
						CHANNELS 3 Zrotation Yrotation Xrotation
						JOINT RightForeArm
						{
							OFFSET -5.241900 -0.000000 -0.000000
							CHANNELS 3 Zrotation Yrotation Xrotation
							JOINT RightHand
							{
								OFFSET -3.444170 -0.000000 -0.000000
								CHANNELS 3 Zrotation Yrotation Xrotation
								JOINT RightFingerBase
								{
									OFFSET 0.000000 0.000000 0.000000
									CHANNELS 3 Zrotation Yrotation Xrotation
									JOINT RightHandIndex1
									{
										OFFSET -0.622530 -0.000000 -0.000000
										CHANNELS 3 Zrotation Yrotation Xrotation
										End Site
										{
											OFFSET 0.000000 0.000000 0.000000
										}
									}
								}
								JOINT RThumb
								{
									OFFSET 0.000000 0.000000 0.000000
									CHANNELS 3 Zrotation Yrotation Xrotation
									End Site
									{
										OFFSET 0.000000 0.000000 0.000000
									}
								}
							}
						}
					}
				}
			}
		}
	}
}
MOTION
Frames: 5
Frame Time: 0.008333
8.287689 16.173281 1.588429 14.585094 64.131835 17.224813 -10.459015 0.588347 -1.365655 -1.271769 15.093301 -31.241402 -0.875255 2.650780 51.667058 3.261152 20.568430 -13.543158 -2.163000 0.000000 -12.603100 9.186690 -1.423420 -0.966633 17.882370 -4.953689 -11.550582 2.326106 -1.538085 35.618078 -4.816577 -11.603571 -38.601270 -172.796600 -0.000000 -17.739400 -3.436484 -1.238340 0.261264 -0.905561 -0.991878 -2.512532 -4.124540 -1.065559 1.792254 7.283279 -9.126135 -10.444201 -1.519682 -0.071939 -0.770154 0.000000 0.000000 0.000000 -1.316462 20.907364 2.566446 -68.050033 14.928214 -0.967524 -4.356042 -25.937413 -0.027309 -5.084157 9.452621 -0.411187 -0.141221 -0.049567 -0.000000 0.000000 0.000000 0.000000 0.000000 0.000000 0.000000 5.677175 -3.569842 -0.109850 65.123077 12.673760 5.400988 2.032315 39.560587 -0.005974 -4.856715 2.791302 -0.127769 0.127742 -0.163786 -0.000000 0.000000 0.000000 0.000000 0.000000 0.000000 0.000000 
8.490036 16.252476 1.688648 14.429658 62.912201 17.292233 -10.282592 0.515681 -1.250202 -2.282786 14.790087 -31.509147 -0.954178 2.418877 49.529888 3.370368 21.068163 -13.266330 -2.084000 0.000000 -12.138500 9.285846 -1.496112 -0.765307 17.186083 -4.480949 -9.673820 2.381366 -1.331857 33.161791 -4.566435 -10.714949 -37.415998 -173.472500 0.000000 -15.858400 -3.730393 -0.818622 -0.099983 -0.953035 -0.556541 -2.599513 -3.983698 -0.638791 1.727688 6.951431 -8.760395 -10.359868 -1.405578 -0.064745 -0.743769 0.000000 0.000000 0.000000 -1.903093 21.474286 2.584314 -68.699743 15.895989 0.805262 -4.409701 -26.337862 -0.030229 -6.662275 10.014199 -0.576472 -0.133144 -0.062364 -0.000000 0.000000 0.000000 0.000000 0.000000 0.000000 0.000000 4.755172 -2.874424 -0.156566 63.909164 13.273383 6.996799 1.907172 41.847387 -0.005649 -4.260748 2.541613 -0.102958 0.120330 -0.170607 -0.000000 0.000000 0.000000 0.000000 0.000000 0.000000 0.000000 
8.696558 16.340383 1.793356 14.366303 61.701655 17.429119 -10.100866 0.460198 -1.130169 -3.350062 14.530589 -31.673496 -1.034312 2.170988 47.170997 3.479405 21.571769 -12.884766 -1.954500 0.000000 -11.706800 9.409276 -1.580360 -0.533143 16.403056 -3.991327 -7.751994 2.405166 -1.118325 30.563167 -4.293648 -9.902874 -35.916243 -174.161500 -0.000000 -13.625000 -4.049150 -0.390649 -0.506273 -1.007799 -0.112452 -2.690242 -3.844154 -0.203562 1.685353 6.623502 -8.511933 -10.288118 -1.282186 -0.056711 -0.719310 0.000000 0.000000 0.000000 -2.557397 22.142782 2.569757 -69.165386 16.854808 2.583660 -4.425863 -26.984102 -0.032808 -7.912259 10.466543 -0.719950 -0.124502 -0.074498 -0.000000 0.000000 0.000000 0.000000 0.000000 0.000000 0.000000 3.841787 -2.314657 -0.215843 62.688839 13.779019 8.554780 1.782583 44.154873 -0.004970 -3.614372 2.303281 -0.079854 0.111431 -0.176777 -0.000000 0.000000 0.000000 0.000000 0.000000 0.000000 0.000000 
8.906976 16.435902 1.902188 14.378103 60.519111 17.610808 -9.918323 0.426955 -0.998207 -4.452321 14.272583 -31.720726 -1.115126 1.911109 44.601298 3.575333 22.010851 -12.376955 -1.757800 0.000000 -11.482800 9.556780 -1.680448 -0.281935 15.545448 -3.522933 -5.805494 2.393989 -0.906023 27.864021 -3.998496 -9.173051 -34.082002 -174.859900 0.000000 -11.089401 -4.384859 0.036780 -0.951060 -1.069295 0.331159 -2.785728 -3.710277 0.230806 1.656663 6.303305 -8.345468 -10.215031 -1.153664 -0.048392 -0.693050 0.000000 0.000000 0.000000 -3.264643 22.879511 2.522894 -69.466042 17.824483 4.281597 -4.404572 -27.819015 -0.034775 -8.801477 10.811941 -0.830722 -0.115423 -0.085696 -0.000000 0.000000 0.000000 0.000000 0.000000 0.000000 0.000000 2.944302 -1.861155 -0.287286 61.499925 14.175963 10.006723 1.660059 46.442815 -0.003970 -2.932800 2.083336 -0.059158 0.101031 -0.182371 -0.000000 0.000000 0.000000 0.000000 0.000000 0.000000 0.000000 
9.121155 16.537731 2.014540 14.438426 59.381411 17.808894 -9.740532 0.419283 -0.847302 -5.560806 13.980860 -31.646206 -1.198550 1.644653 41.845052 3.644476 22.310515 -11.745097 -1.489400 0.000000 -11.451700 9.724048 -1.801463 -0.023680 14.634944 -3.110154 -3.862825 2.347267 -0.705431 25.118069 -3.681773 -8.521857 -31.895740 -175.567299 0.000000 -8.279200 -4.723628 0.454876 -1.427708 -1.134931 0.764726 -2.883441 -3.583043 0.654859 1.646634 5.997187 -8.269626 -10.141743 -1.020148 -0.039750 -0.665546 0.000000 0.000000 0.000000 -4.005165 23.692566 2.442949 -69.627431 18.773961 5.867742 -4.348981 -28.758052 -0.035897 -9.312135 11.046751 -0.900579 -0.106177 -0.095693 -0.000000 0.000000 0.000000 0.000000 0.000000 0.000000 0.000000 2.072176 -1.531244 -0.371799 60.372958 14.516685 11.358933 1.542755 48.639488 -0.002738 -2.249251 1.887444 -0.041570 0.089608 -0.187324 -0.000000 0.000000 0.000000 0.000000 0.000000 0.000000 0.000000 
